<svg width="26" height="27" viewBox="0 0 26 27" fill="none" xmlns="http://www.w3.org/2000/svg">
<g clip-path="url(#clip0_17_148)">
<path d="M20.2135 9.122C20.2135 13.8513 16.8394 14.5857 16.8394 18.9933C16.8394 21.2687 14.7319 21.4604 13.1279 21.4604C11.7425 21.4604 8.68351 20.8883 8.68351 18.9918C8.68351 14.5865 5.36743 13.852 5.36743 9.122C5.36743 4.6924 8.93387 1.10156 12.8465 1.10156C16.7605 1.10156 20.2135 4.6924 20.2135 9.122Z" fill="url(#paint0_linear_17_148)" stroke="white" stroke-width="0.5"/>
<path d="M15.6038 24.8688C15.6038 25.4769 14.0963 26.705 12.7918 26.705C11.4874 26.705 9.97986 25.4769 9.97986 24.8688C9.97986 24.2606 11.4867 24.5015 12.7918 24.5015C14.0963 24.5015 15.6038 24.2606 15.6038 24.8688Z" fill="url(#paint1_linear_17_148)" stroke="white" stroke-width="0.5"/>
<path d="M15.9653 8.55837C15.9027 8.4901 15.8283 8.43594 15.7465 8.39899C15.6646 8.36204 15.5768 8.34302 15.4882 8.34302C15.3996 8.34302 15.3118 8.36204 15.23 8.39899C15.1481 8.43594 15.0737 8.4901 15.0111 8.55837L12.7889 10.977L10.5667 8.55837C10.5041 8.49017 10.4297 8.43608 10.3478 8.39918C10.266 8.36227 10.1782 8.34328 10.0896 8.34328C10.001 8.34328 9.91329 8.36227 9.83143 8.39918C9.74957 8.43608 9.67519 8.49017 9.61254 8.55837C9.54988 8.62656 9.50018 8.70751 9.46628 8.79661C9.43237 8.88571 9.41492 8.9812 9.41492 9.07764C9.41492 9.17408 9.43237 9.26957 9.46628 9.35867C9.50018 9.44776 9.54988 9.52872 9.61254 9.59691L12.1141 12.3196V20.0947C12.1141 20.2895 12.1852 20.4763 12.3118 20.6141C12.4383 20.7518 12.61 20.8292 12.7889 20.8292C12.9679 20.8292 13.1395 20.7518 13.2661 20.6141C13.3927 20.4763 13.4637 20.2895 13.4637 20.0947V12.3196L15.9653 9.59691C16.028 9.52876 16.0778 9.44782 16.1117 9.35872C16.1457 9.26961 16.1632 9.1741 16.1632 9.07764C16.1632 8.98118 16.1457 8.88566 16.1117 8.79656C16.0778 8.70746 16.028 8.62652 15.9653 8.55837Z" fill="white"/>
<path d="M17.3997 22.9604C17.3997 23.2252 17.2594 23.4791 17.0096 23.6663C16.7598 23.8535 16.421 23.9587 16.0678 23.9587H10.74C10.3868 23.9587 10.048 23.8535 9.7982 23.6663C9.54841 23.4791 9.40808 23.2252 9.40808 22.9604V19.9656H17.3997V22.9604Z" fill="#09010E"/>
<path d="M8.73812 24.5011C8.56913 24.5004 8.40653 24.4307 8.28246 24.3059C8.15839 24.181 8.08188 24.01 8.06806 23.8267C8.05424 23.6434 8.10411 23.4611 8.20781 23.3159C8.31151 23.1707 8.4615 23.0731 8.62812 23.0424L16.726 21.5735C16.8134 21.5571 16.903 21.5598 16.9895 21.5813C17.0759 21.6029 17.1576 21.6429 17.2298 21.699C17.302 21.7552 17.3632 21.8264 17.4099 21.9084C17.4567 21.9905 17.488 22.0819 17.502 22.1772C17.5166 22.2723 17.5138 22.3696 17.4938 22.4636C17.4739 22.5575 17.437 22.6462 17.3855 22.7247C17.334 22.8031 17.2688 22.8697 17.1936 22.9207C17.1184 22.9717 17.0347 23.0061 16.9473 23.0219L8.84946 24.4908C8.81271 24.4978 8.77544 24.5013 8.73812 24.5011ZM8.73812 21.5632C8.56913 21.5625 8.40653 21.4928 8.28246 21.368C8.15839 21.2431 8.08188 21.0721 8.06806 20.8888C8.05424 20.7055 8.10411 20.5232 8.20781 20.378C8.31151 20.2328 8.4615 20.1352 8.62812 20.1045L16.726 18.6356C16.8134 18.6193 16.9029 18.622 16.9894 18.6436C17.0758 18.6652 17.1575 18.7053 17.2296 18.7614C17.3018 18.8175 17.363 18.8887 17.4098 18.9707C17.4565 19.0527 17.4879 19.144 17.502 19.2393C17.5166 19.3344 17.5138 19.4317 17.4938 19.5257C17.4739 19.6196 17.437 19.7083 17.3855 19.7868C17.334 19.8652 17.2688 19.9318 17.1936 19.9828C17.1184 20.0338 17.0347 20.0682 16.9473 20.084L8.84946 21.5529C8.81271 21.5599 8.77544 21.5634 8.73812 21.5632Z" fill="url(#paint2_linear_17_148)" stroke="white" stroke-width="0.5"/>
</g>
<defs>
<linearGradient id="paint0_linear_17_148" x1="6.74358" y1="-0.744297" x2="26.6485" y2="3.89246" gradientUnits="userSpaceOnUse">
<stop stop-color="#C54A92"/>
<stop offset="1" stop-color="#2E62EB"/>
</linearGradient>
<linearGradient id="paint1_linear_17_148" x1="10.5012" y1="24.2504" x2="12.2564" y2="27.9091" gradientUnits="userSpaceOnUse">
<stop stop-color="#C54A92"/>
<stop offset="1" stop-color="#2E62EB"/>
</linearGradient>
<linearGradient id="paint2_linear_17_148" x1="8.94133" y1="18.0924" x2="14.5731" y2="25.6434" gradientUnits="userSpaceOnUse">
<stop stop-color="#C54A92"/>
<stop offset="1" stop-color="#2E62EB"/>
</linearGradient>
<clipPath id="clip0_17_148">
<rect width="24.9739" height="26.9537" fill="white" transform="translate(0.41748)"/>
</clipPath>
</defs>
</svg>
