<svg width="108" height="50" viewBox="0 0 108 50" fill="none" xmlns="http://www.w3.org/2000/svg">
<path d="M4.48588 33.198H16.1979V36.75H0.117875V3.294H4.48588V33.198ZM23.0926 6.174C22.2606 6.174 21.5566 5.886 20.9806 5.31C20.4046 4.734 20.1166 4.03 20.1166 3.198C20.1166 2.366 20.4046 1.662 20.9806 1.086C21.5566 0.509998 22.2606 0.221998 23.0926 0.221998C23.8926 0.221998 24.5646 0.509998 25.1086 1.086C25.6846 1.662 25.9726 2.366 25.9726 3.198C25.9726 4.03 25.6846 4.734 25.1086 5.31C24.5646 5.886 23.8926 6.174 23.0926 6.174ZM25.2046 10.446V36.75H20.8366V10.446H25.2046ZM43.4971 10.014C45.7691 10.014 47.7531 10.51 49.4491 11.502C51.1771 12.494 52.4571 13.742 53.2891 15.246V10.446H57.7051V37.326C57.7051 39.726 57.1931 41.854 56.1691 43.71C55.1451 45.598 53.6731 47.07 51.7531 48.126C49.8651 49.182 47.6571 49.71 45.1291 49.71C41.6731 49.71 38.7931 48.894 36.4891 47.262C34.1851 45.63 32.8251 43.406 32.4091 40.59H36.7291C37.2091 42.19 38.2011 43.47 39.7051 44.43C41.2091 45.422 43.0171 45.918 45.1291 45.918C47.5291 45.918 49.4811 45.166 50.9851 43.662C52.5211 42.158 53.2891 40.046 53.2891 37.326V31.806C52.4251 33.342 51.1451 34.622 49.4491 35.646C47.7531 36.67 45.7691 37.182 43.4971 37.182C41.1611 37.182 39.0331 36.606 37.1131 35.454C35.2251 34.302 33.7371 32.686 32.6491 30.606C31.5611 28.526 31.0171 26.158 31.0171 23.502C31.0171 20.814 31.5611 18.462 32.6491 16.446C33.7371 14.398 35.2251 12.814 37.1131 11.694C39.0331 10.574 41.1611 10.014 43.4971 10.014ZM53.2891 23.55C53.2891 21.566 52.8891 19.838 52.0891 18.366C51.2891 16.894 50.2011 15.774 48.8251 15.006C47.4811 14.206 45.9931 13.806 44.3611 13.806C42.7291 13.806 41.2411 14.19 39.8971 14.958C38.5531 15.726 37.4811 16.846 36.6811 18.318C35.8811 19.79 35.4811 21.518 35.4811 23.502C35.4811 25.518 35.8811 27.278 36.6811 28.782C37.4811 30.254 38.5531 31.39 39.8971 32.19C41.2411 32.958 42.7291 33.342 44.3611 33.342C45.9931 33.342 47.4811 32.958 48.8251 32.19C50.2011 31.39 51.2891 30.254 52.0891 28.782C52.8891 27.278 53.2891 25.534 53.2891 23.55ZM78.1426 9.966C80.1266 9.966 81.9186 10.398 83.5186 11.262C85.1186 12.094 86.3666 13.358 87.2626 15.054C88.1906 16.75 88.6546 18.814 88.6546 21.246V36.75H84.3346V21.87C84.3346 19.246 83.6786 17.246 82.3666 15.87C81.0546 14.462 79.2626 13.758 76.9906 13.758C74.6866 13.758 72.8466 14.478 71.4706 15.918C70.1266 17.358 69.4546 19.454 69.4546 22.206V36.75H65.0866V1.23H69.4546V14.19C70.3186 12.846 71.5026 11.806 73.0066 11.07C74.5426 10.334 76.2546 9.966 78.1426 9.966ZM101.118 14.046V29.55C101.118 30.83 101.39 31.742 101.934 32.286C102.478 32.798 103.422 33.054 104.766 33.054H107.982V36.75H104.046C101.614 36.75 99.7898 36.19 98.5738 35.07C97.3578 33.95 96.7498 32.11 96.7498 29.55V14.046H93.3418V10.446H96.7498V3.822H101.118V10.446H107.982V14.046H101.118Z" fill="white"/>
</svg>
