<svg width="108" height="51" viewBox="0 0 108 51" fill="none" xmlns="http://www.w3.org/2000/svg">
<path d="M4.48588 33.698H16.1979V37.25H0.117875V3.794H4.48588V33.698ZM23.0926 6.674C22.2606 6.674 21.5566 6.386 20.9806 5.81C20.4046 5.234 20.1166 4.53 20.1166 3.698C20.1166 2.866 20.4046 2.162 20.9806 1.586C21.5566 1.01 22.2606 0.721998 23.0926 0.721998C23.8926 0.721998 24.5646 1.01 25.1086 1.586C25.6846 2.162 25.9726 2.866 25.9726 3.698C25.9726 4.53 25.6846 5.234 25.1086 5.81C24.5646 6.386 23.8926 6.674 23.0926 6.674ZM25.2046 10.946V37.25H20.8366V10.946H25.2046ZM43.4971 10.514C45.7691 10.514 47.7531 11.01 49.4491 12.002C51.1771 12.994 52.4571 14.242 53.2891 15.746V10.946H57.7051V37.826C57.7051 40.226 57.1931 42.354 56.1691 44.21C55.1451 46.098 53.6731 47.57 51.7531 48.626C49.8651 49.682 47.6571 50.21 45.1291 50.21C41.6731 50.21 38.7931 49.394 36.4891 47.762C34.1851 46.13 32.8251 43.906 32.4091 41.09H36.7291C37.2091 42.69 38.2011 43.97 39.7051 44.93C41.2091 45.922 43.0171 46.418 45.1291 46.418C47.5291 46.418 49.4811 45.666 50.9851 44.162C52.5211 42.658 53.2891 40.546 53.2891 37.826V32.306C52.4251 33.842 51.1451 35.122 49.4491 36.146C47.7531 37.17 45.7691 37.682 43.4971 37.682C41.1611 37.682 39.0331 37.106 37.1131 35.954C35.2251 34.802 33.7371 33.186 32.6491 31.106C31.5611 29.026 31.0171 26.658 31.0171 24.002C31.0171 21.314 31.5611 18.962 32.6491 16.946C33.7371 14.898 35.2251 13.314 37.1131 12.194C39.0331 11.074 41.1611 10.514 43.4971 10.514ZM53.2891 24.05C53.2891 22.066 52.8891 20.338 52.0891 18.866C51.2891 17.394 50.2011 16.274 48.8251 15.506C47.4811 14.706 45.9931 14.306 44.3611 14.306C42.7291 14.306 41.2411 14.69 39.8971 15.458C38.5531 16.226 37.4811 17.346 36.6811 18.818C35.8811 20.29 35.4811 22.018 35.4811 24.002C35.4811 26.018 35.8811 27.778 36.6811 29.282C37.4811 30.754 38.5531 31.89 39.8971 32.69C41.2411 33.458 42.7291 33.842 44.3611 33.842C45.9931 33.842 47.4811 33.458 48.8251 32.69C50.2011 31.89 51.2891 30.754 52.0891 29.282C52.8891 27.778 53.2891 26.034 53.2891 24.05ZM78.1426 10.466C80.1266 10.466 81.9186 10.898 83.5186 11.762C85.1186 12.594 86.3666 13.858 87.2626 15.554C88.1906 17.25 88.6546 19.314 88.6546 21.746V37.25H84.3346V22.37C84.3346 19.746 83.6786 17.746 82.3666 16.37C81.0546 14.962 79.2626 14.258 76.9906 14.258C74.6866 14.258 72.8466 14.978 71.4706 16.418C70.1266 17.858 69.4546 19.954 69.4546 22.706V37.25H65.0866V1.73H69.4546V14.69C70.3186 13.346 71.5026 12.306 73.0066 11.57C74.5426 10.834 76.2546 10.466 78.1426 10.466ZM101.118 14.546V30.05C101.118 31.33 101.39 32.242 101.934 32.786C102.478 33.298 103.422 33.554 104.766 33.554H107.982V37.25H104.046C101.614 37.25 99.7898 36.69 98.5738 35.57C97.3578 34.45 96.7498 32.61 96.7498 30.05V14.546H93.3418V10.946H96.7498V4.322H101.118V10.946H107.982V14.546H101.118Z" fill="white"/>
</svg>
