<svg width="24" height="21" viewBox="0 0 24 21" fill="none" xmlns="http://www.w3.org/2000/svg">
<path fill-rule="evenodd" clip-rule="evenodd" d="M4.07821 1.99109C2.3669 1.99109 0.979614 3.37837 0.979614 5.08968V17.4522C0.979614 19.1635 2.3669 20.5508 4.07821 20.5508H16.4532C18.1645 20.5508 19.5518 19.1635 19.5518 17.4522V5.08968C19.5518 4.62279 19.4485 4.18002 19.2636 3.78296C18.7107 2.53953 17.5514 2.18854 17.515 2.1778C17.5144 2.17763 17.5141 2.17754 17.5141 2.17754C15.9547 3.63134 14.8048 4.90974 13.6795 6.16076C12.9655 6.95458 12.2614 7.73738 11.4689 8.54697L9.99717 6.79651C8.89132 5.5284 6.97688 5.40569 5.72115 6.52242C4.46541 7.63916 4.34389 9.57245 5.44974 10.8406L9.54588 15.5269C10.123 16.1888 10.9549 16.5669 11.8282 16.5644C12.7014 16.5619 13.5312 16.179 14.1046 15.5139L19.5514 9.26016V5.23895C19.5514 4.6538 19.4375 4.1742 19.2636 3.78296C18.9184 3.04187 18.2888 2.46002 17.515 2.1778C17.1838 2.057 16.8262 1.99109 16.4532 1.99109H4.07821Z" fill="url(#paint0_linear_35_11)"/>
<path d="M17.5141 2.17754L17.5831 1.93726L17.4471 1.89818L17.3436 1.99468L17.5141 2.17754ZM13.6795 6.16076L13.8654 6.32795L13.6795 6.16076ZM11.4689 8.54697L11.2775 8.70785L11.4548 8.91872L11.6475 8.72185L11.4689 8.54697ZM9.99717 6.79651L10.1886 6.6356L10.1856 6.6322L9.99717 6.79651ZM5.72115 6.52242L5.55501 6.33561L5.72115 6.52242ZM5.44974 10.8406L5.26132 11.0049L5.2615 11.0051L5.44974 10.8406ZM9.54588 15.5269L9.7343 15.3626L9.73411 15.3624L9.54588 15.5269ZM14.1046 15.5139L13.9161 15.3497L13.9153 15.3507L14.1046 15.5139ZM19.5514 9.26016L19.74 9.42435L19.8014 9.35376V9.26016H19.5514ZM1.22961 5.08968C1.22961 3.51644 2.50497 2.24109 4.07821 2.24109V1.74109C2.22883 1.74109 0.729614 3.2403 0.729614 5.08968H1.22961ZM1.22961 17.4522V5.08968H0.729614V17.4522H1.22961ZM4.07821 20.3008C2.50497 20.3008 1.22961 19.0254 1.22961 17.4522H0.729614C0.729614 19.3015 2.22883 20.8008 4.07821 20.8008V20.3008ZM16.4532 20.3008H4.07821V20.8008H16.4532V20.3008ZM19.3018 17.4522C19.3018 19.0254 18.0264 20.3008 16.4532 20.3008V20.8008C18.3025 20.8008 19.8018 19.3015 19.8018 17.4522H19.3018ZM19.3018 5.08968V17.4522H19.8018V5.08968H19.3018ZM19.0369 3.88851C19.2068 4.25319 19.3018 4.66 19.3018 5.08968H19.8018C19.8018 4.58558 19.6902 4.10684 19.4902 3.67741L19.0369 3.88851ZM17.4442 2.41756C17.4613 2.42263 18.5284 2.74483 19.0351 3.88453L19.492 3.68139C18.893 2.33423 17.6414 1.95446 17.5858 1.93804L17.4442 2.41756ZM17.5141 2.17754C17.4451 2.41782 17.4451 2.41782 17.4451 2.41782C17.4451 2.41782 17.4451 2.41782 17.4451 2.41782C17.4451 2.41782 17.4451 2.41782 17.4451 2.41782C17.445 2.41781 17.445 2.41781 17.445 2.41781C17.445 2.41781 17.445 2.41781 17.445 2.4178C17.445 2.4178 17.445 2.41779 17.445 2.41779C17.4449 2.41778 17.4449 2.41777 17.4449 2.41776C17.4448 2.41774 17.4447 2.41772 17.4447 2.41771C17.4446 2.41767 17.4445 2.41764 17.4444 2.41762C17.4442 2.41758 17.4441 2.41755 17.4441 2.41755L17.5858 1.93805C17.5852 1.93787 17.5847 1.93772 17.5843 1.93759C17.584 1.93752 17.5838 1.93746 17.5837 1.93741C17.5836 1.93738 17.5835 1.93736 17.5834 1.93733C17.5833 1.93732 17.5833 1.93731 17.5833 1.9373C17.5832 1.93729 17.5832 1.93729 17.5832 1.93728C17.5832 1.93728 17.5832 1.93728 17.5832 1.93727C17.5832 1.93727 17.5832 1.93727 17.5832 1.93727C17.5832 1.93727 17.5832 1.93727 17.5832 1.93727C17.5832 1.93727 17.5832 1.93727 17.5832 1.93727C17.5831 1.93727 17.5831 1.93726 17.5141 2.17754ZM13.8654 6.32795C14.9907 5.07696 16.1341 3.80593 17.6846 2.3604L17.3436 1.99468C15.7754 3.45675 14.619 4.74253 13.4937 5.99358L13.8654 6.32795ZM11.6475 8.72185C12.4443 7.90793 13.1518 7.12132 13.8654 6.32795L13.4937 5.99358C12.7792 6.78785 12.0785 7.56683 11.2902 8.37209L11.6475 8.72185ZM9.80581 6.95739L11.2775 8.70785L11.6602 8.38609L10.1885 6.63562L9.80581 6.95739ZM5.88728 6.70924C7.03891 5.68508 8.79408 5.79727 9.80875 6.96082L10.1856 6.6322C8.98857 5.25954 6.91486 5.12629 5.55501 6.33561L5.88728 6.70924ZM5.63816 10.6762C4.62225 9.51127 4.73422 7.73465 5.88728 6.70924L5.55501 6.33561C4.19659 7.54366 4.06554 9.63364 5.26132 11.0049L5.63816 10.6762ZM9.73411 15.3624L5.63797 10.676L5.2615 11.0051L9.35764 15.6915L9.73411 15.3624ZM11.8274 16.3144C11.0271 16.3167 10.2641 15.9702 9.7343 15.3626L9.35746 15.6912C9.98194 16.4074 10.8827 16.8171 11.8289 16.8144L11.8274 16.3144ZM13.9153 15.3507C13.3888 15.9612 12.6278 16.3121 11.8274 16.3144L11.8289 16.8144C12.7751 16.8117 13.6735 16.3968 14.2939 15.6772L13.9153 15.3507ZM19.3629 9.09596L13.9161 15.3497L14.2931 15.6781L19.74 9.42435L19.3629 9.09596ZM19.3014 5.23895V9.26016H19.8014V5.23895H19.3014ZM19.0351 3.88453C19.1943 4.2424 19.3014 4.68723 19.3014 5.23895H19.8014C19.8014 4.62036 19.6808 4.106 19.492 3.68139L19.0351 3.88453ZM17.4293 2.41266C18.1404 2.67203 18.7196 3.20712 19.0369 3.88851L19.4902 3.67741C19.1172 2.87663 18.4371 2.24802 17.6006 1.94293L17.4293 2.41266ZM16.4532 2.24109C16.7965 2.24109 17.1252 2.30173 17.4293 2.41266L17.6006 1.94293C17.2424 1.81226 16.8558 1.74109 16.4532 1.74109V2.24109ZM4.07821 2.24109H16.4532V1.74109H4.07821V2.24109Z" fill="white"/>
<path fill-rule="evenodd" clip-rule="evenodd" d="M22.3049 1.51501C23.0957 2.18621 23.1787 3.3553 22.4901 4.12624L12.8635 14.4005C12.5042 14.8029 11.9842 15.0345 11.4369 15.036C10.8897 15.0375 10.3684 14.8088 10.0067 14.4084L6.3041 10.1611C5.61109 9.394 5.68724 8.22447 6.47418 7.54891C7.26112 6.87335 8.46085 6.94759 9.15386 7.71471L11.4234 10.3757L19.6262 1.69559C20.3147 0.924652 21.514 0.843804 22.3049 1.51501Z" fill="url(#paint1_linear_35_11)" stroke="white" stroke-width="0.5"/>
<defs>
<linearGradient id="paint0_linear_35_11" x1="2.70115" y1="0.308355" x2="26.5192" y2="7.92202" gradientUnits="userSpaceOnUse">
<stop stop-color="#C54A92"/>
<stop offset="1" stop-color="#2E62EB"/>
</linearGradient>
<linearGradient id="paint1_linear_35_11" x1="7.34491" y1="1.97115" x2="25.3925" y2="9.0681" gradientUnits="userSpaceOnUse">
<stop stop-color="#C54A92"/>
<stop offset="1" stop-color="#2E62EB"/>
</linearGradient>
</defs>
</svg>
