<svg width="31" height="20" viewBox="0 0 31 20" fill="none" xmlns="http://www.w3.org/2000/svg">
<path d="M20.4179 0.545532H16.5051C16.1407 0.545532 15.7899 0.69089 15.5212 0.952535L11.0436 5.31327C11.039 5.31812 11.0345 5.32781 11.0299 5.33266C10.2738 6.08852 10.2874 7.29499 10.9343 8.046C11.5127 8.7195 12.7289 8.89877 13.4896 8.17683C13.4942 8.17198 13.5033 8.17198 13.5079 8.16714L17.1473 4.6204C17.4434 4.33453 17.908 4.35391 18.1768 4.66885C18.4501 4.9838 18.4273 5.47317 18.1312 5.76388L16.9424 6.9219L23.5745 12.649C23.7066 12.7653 23.825 12.8913 23.9344 13.0221V3.6465L21.4473 1.00099C21.1786 0.710271 20.805 0.545532 20.4179 0.545532ZM25.3965 3.65619V14.5047C25.3965 15.3624 26.0479 16.0552 26.8542 16.0552H29.7694V3.65619H25.3965ZM27.583 14.5047C27.1821 14.5047 26.8542 14.1559 26.8542 13.7295C26.8542 13.3031 27.1821 12.9543 27.583 12.9543C27.9838 12.9543 28.3118 13.3031 28.3118 13.7295C28.3118 14.1559 27.9838 14.5047 27.583 14.5047ZM0.617065 16.0504H3.5323C4.33854 16.0504 4.98991 15.3575 4.98991 14.4999V3.65619H0.617065V16.0504ZM2.80349 12.9543C3.20433 12.9543 3.5323 13.3031 3.5323 13.7295C3.5323 14.1559 3.20433 14.5047 2.80349 14.5047C2.40265 14.5047 2.07468 14.1559 2.07468 13.7295C2.07468 13.2983 2.40265 12.9543 2.80349 12.9543ZM22.659 13.8555L15.8583 7.98302L14.4917 9.31546C13.1389 10.6285 11.0664 10.5026 9.85926 9.10227C8.63395 7.67776 8.72961 5.47317 10.0597 4.17464L13.7857 0.545532H9.96858C9.5814 0.545532 9.21245 0.710271 8.93914 1.00099L6.44753 3.6465V14.4951H7.2811L11.4034 18.4633C12.6515 19.5438 14.4872 19.3403 15.503 18.0127L15.5121 18.003L16.3274 18.754C17.0517 19.3839 18.1221 19.2628 18.7097 18.4924L20.14 16.6221L20.386 16.8353C21.01 17.3731 21.9301 17.2762 22.4358 16.6076L22.8685 16.0407C23.3787 15.372 23.283 14.3981 22.659 13.8555Z" fill="url(#paint0_linear_17_144)" stroke="white" stroke-width="0.5"/>
<defs>
<linearGradient id="paint0_linear_17_144" x1="3.31932" y1="-1.142" x2="36.276" y2="15.3474" gradientUnits="userSpaceOnUse">
<stop stop-color="#C54A92"/>
<stop offset="1" stop-color="#2E62EB"/>
</linearGradient>
</defs>
</svg>
