<svg width="28" height="27" viewBox="0 0 28 27" fill="none" xmlns="http://www.w3.org/2000/svg">
<path d="M16.5321 13.3111C16.3233 14.2291 16.9079 15.1888 17.8682 15.3975C18.8286 15.6061 19.7889 15.0219 19.9977 14.1039L22.5447 3.17158C22.7535 2.2536 22.169 1.29389 21.2086 1.08526C20.2482 0.876624 19.2879 1.4608 19.0791 2.37878L16.5321 13.3111Z" fill="url(#paint0_linear_17_124)" stroke="white" stroke-width="0.5"/>
<path d="M19.831 14.3951C19.831 14.3951 16.1984 10.8067 9.76814 12.6009C9.76814 12.6009 5.96847 13.2685 6.17724 15.1879C6.17724 15.1879 6.05198 19.9448 7.68041 22.7822C9.69306 26.2253 16.9552 26.8128 20.5724 22.7822C21.3828 21.8793 21.306 21.0678 21.7415 19.6398C21.7415 18.1423 21.7415 14.6483 19.831 14.3951Z" fill="url(#paint1_linear_17_124)" stroke="white" stroke-width="0.5"/>
<path d="M13.3575 13.9364C13.5245 14.8961 14.4849 15.4803 15.4452 15.3134C16.4056 15.1465 17.0737 14.2285 16.9066 13.2688L14.8189 2.25299C14.6519 1.29328 13.6915 0.709106 12.7312 0.876012C11.7708 1.04292 11.1028 1.9609 11.3115 2.92061L13.3575 13.9364Z" fill="url(#paint2_linear_17_124)"/>
<path d="M13.3575 13.9364C13.5245 14.8961 14.4849 15.4803 15.4452 15.3134C16.4056 15.1465 17.0737 14.2285 16.9066 13.2688L14.8189 2.25299C14.6519 1.29328 13.6915 0.709106 12.7312 0.876012C11.7708 1.04292 11.1028 1.9609 11.3115 2.92061L13.3575 13.9364" stroke="white" stroke-width="0.5"/>
<path d="M5.96965 13.3947C5.84439 12.435 6.55422 11.5587 7.55633 11.4335H7.59808C8.55844 11.3501 9.47704 12.0177 9.56055 13.0192L9.85283 15.7314C9.97809 16.6911 9.26827 17.5673 8.26616 17.6925H8.2244C7.22229 17.776 6.34544 17.1084 6.26193 16.1069L5.96965 13.3947Z" fill="url(#paint3_linear_17_124)"/>
<path d="M5.96965 13.3947C5.84439 12.435 6.55422 11.5587 7.55633 11.4335H7.59808C8.55844 11.3501 9.47704 12.0177 9.56055 13.0192L9.85283 15.7314C9.97809 16.6911 9.26827 17.5673 8.26616 17.6925H8.2244C7.22229 17.776 6.34544 17.1084 6.26193 16.1069L5.96965 13.3947" stroke="white" stroke-width="0.5"/>
<path d="M9.34819 11.4335C9.22293 10.4738 9.93276 9.59754 10.9349 9.47236H10.9766C11.9787 9.38891 12.8556 10.0565 12.9391 11.058L13.2314 13.7702C13.3566 14.7299 12.6468 15.6062 11.6447 15.7313H11.6029C10.6008 15.8148 9.72398 15.1472 9.64047 14.1457L9.34819 11.4335Z" fill="url(#paint4_linear_17_124)"/>
<path d="M9.34819 11.4335C9.22293 10.4738 9.93276 9.59754 10.9349 9.47236H10.9766C11.9787 9.38891 12.8556 10.0565 12.9391 11.058L13.2314 13.7702C13.3566 14.7299 12.6468 15.6062 11.6447 15.7313H11.6029C10.6008 15.8148 9.72398 15.1472 9.64047 14.1457L9.34819 11.4335" stroke="white" stroke-width="0.5"/>
<path d="M7.67106 17.1089C8.67318 16.9837 9.34125 16.1492 9.25774 15.1477L8.96546 12.4355C8.9237 12.1851 8.79844 11.8931 8.67318 11.6427C9.2995 11.9348 9.50827 12.4355 9.59178 13.0197L9.88406 15.7319C10.0093 16.6916 9.2995 17.5679 8.33914 17.6513C7.62931 17.7348 6.96123 17.3592 6.6272 16.8168C6.87773 17.0254 7.25352 17.1506 7.67106 17.1089Z" fill="white"/>
<path d="M11.0059 15.1476C12.008 15.0224 12.7179 14.1879 12.5926 13.2282L12.3003 10.5159C12.2586 10.2656 12.1333 9.93178 12.008 9.72314C12.5926 10.057 12.8431 10.5577 12.9266 11.1418L13.2189 13.8541C13.3442 14.8138 12.6343 15.6483 11.6322 15.7735H11.5905C10.8807 15.8569 10.2126 15.4814 9.87854 14.939C10.2126 15.1059 10.5884 15.1893 11.0059 15.1476Z" fill="white"/>
<path d="M18.2373 17.025C16.2331 16.0653 11.6818 17.7344 12.6004 21.907C12.6004 17.5675 16.5254 16.8164 18.2373 17.025Z" fill="white"/>
<path d="M17.4805 12.7272C16.0191 11.851 15.7686 13.2279 13.3051 13.3114C12.2194 13.3531 11.7601 15.5646 13.3886 16.3574C15.6433 17.484 15.8103 15.8984 16.3949 16.5243C16.9795 17.192 17.5223 17.3171 18.0233 18.0682C18.3991 18.6107 21.1967 17.7761 21.489 16.6495C22.0318 14.438 19.7353 14.1042 17.4805 12.7272Z" fill="white"/>
<path d="M17.6584 13.1026C16.1552 12.2263 15.8629 13.6033 13.3159 13.6868C12.1885 13.7285 11.6875 16.0234 13.3994 16.858C15.7377 18.0263 15.9464 16.3573 16.4893 17.0249C17.1156 17.6925 17.6584 17.8594 18.2012 18.6522C18.577 19.2364 17.5749 21.4062 17.5749 21.4062C17.5749 21.4062 20.4559 23.4508 21.0405 22.2824C22.1261 20.1126 21.8338 18.4436 21.7921 17.1918C21.7086 14.2292 20.0384 14.5213 17.6584 13.1026Z" fill="url(#paint5_linear_17_124)"/>
<path d="M17.6584 13.1026C16.1552 12.2263 15.8629 13.6033 13.3159 13.6868C12.1885 13.7285 11.6875 16.0234 13.3994 16.858C15.7377 18.0263 15.9464 16.3573 16.4893 17.0249C17.1156 17.6925 17.6584 17.8594 18.2012 18.6522C18.577 19.2364 17.5749 21.4062 17.5749 21.4062C17.5749 21.4062 20.4559 23.4508 21.0405 22.2824C22.1261 20.1126 21.8338 18.4436 21.7921 17.1918C21.7086 14.2292 20.0384 14.5213 17.6584 13.1026" stroke="white" stroke-width="0.5"/>
<defs>
<linearGradient id="paint0_linear_17_124" x1="17.055" y1="-0.262333" x2="25.5184" y2="0.882641" gradientUnits="userSpaceOnUse">
<stop stop-color="#C54A92"/>
<stop offset="1" stop-color="#2E62EB"/>
</linearGradient>
<linearGradient id="paint1_linear_17_124" x1="7.65469" y1="10.8501" x2="27.5588" y2="18.2512" gradientUnits="userSpaceOnUse">
<stop stop-color="#C54A92"/>
<stop offset="1" stop-color="#2E62EB"/>
</linearGradient>
<linearGradient id="paint2_linear_17_124" x1="11.7978" y1="-0.466469" x2="19.6744" y2="0.515931" gradientUnits="userSpaceOnUse">
<stop stop-color="#C54A92"/>
<stop offset="1" stop-color="#2E62EB"/>
</linearGradient>
<linearGradient id="paint3_linear_17_124" x1="6.31793" y1="10.8578" x2="11.6363" y2="11.9172" gradientUnits="userSpaceOnUse">
<stop stop-color="#C54A92"/>
<stop offset="1" stop-color="#2E62EB"/>
</linearGradient>
<linearGradient id="paint4_linear_17_124" x1="9.69647" y1="8.89658" x2="15.0148" y2="9.95602" gradientUnits="userSpaceOnUse">
<stop stop-color="#C54A92"/>
<stop offset="1" stop-color="#2E62EB"/>
</linearGradient>
<linearGradient id="paint5_linear_17_124" x1="13.1745" y1="11.9207" x2="25.5107" y2="15.7575" gradientUnits="userSpaceOnUse">
<stop stop-color="#C54A92"/>
<stop offset="1" stop-color="#2E62EB"/>
</linearGradient>
</defs>
</svg>
